<svg xmlns="http://www.w3.org/2000/svg" viewBox="0 0 16 16" shape-rendering="crispEdges"><rect width="16" height="16" fill="#FFE3EC"/><rect x="7.320" y="3.240" width="0.6799999999999999" height="0.6799999999999999" fill="#3A2A22"/><rect x="8.000" y="3.240" width="0.6799999999999999" height="0.6799999999999999" fill="#3A2A22"/><rect x="6.640" y="3.920" width="0.6799999999999999" height="0.6799999999999999" fill="#3A2A22"/><rect x="7.320" y="3.920" width="0.6799999999999999" height="0.6799999999999999" fill="#FFFFFF"/><rect x="8.000" y="3.920" width="0.6799999999999999" height="0.6799999999999999" fill="#FFFFFF"/><rect x="8.680" y="3.920" width="0.6799999999999999" height="0.6799999999999999" fill="#3A2A22"/><rect x="5.960" y="4.600" width="0.6799999999999999" height="0.6799999999999999" fill="#3A2A22"/><rect x="6.640" y="4.600" width="0.6799999999999999" height="0.6799999999999999" fill="#FFFFFF"/><rect x="7.320" y="4.600" width="0.6799999999999999" height="0.6799999999999999" fill="#FFFFFF"/><rect x="8.000" y="4.600" width="0.6799999999999999" height="0.6799999999999999" fill="#FFFFFF"/><rect x="8.680" y="4.600" width="0.6799999999999999" height="0.6799999999999999" fill="#FFFFFF"/><rect x="9.360" y="4.600" width="0.6799999999999999" height="0.6799999999999999" fill="#3A2A22"/><rect x="5.280" y="5.280" width="0.6799999999999999" height="0.6799999999999999" fill="#3A2A22"/><rect x="5.960" y="5.280" width="0.6799999999999999" height="0.6799999999999999" fill="#FFFFFF"/><rect x="6.640" y="5.280" width="0.6799999999999999" height="0.6799999999999999" fill="#FFFFFF"/><rect x="7.320" y="5.280" width="0.6799999999999999" height="0.6799999999999999" fill="#FFFFFF"/><rect x="8.000" y="5.280" width="0.6799999999999999" height="0.6799999999999999" fill="#FFFFFF"/><rect x="8.680" y="5.280" width="0.6799999999999999" height="0.6799999999999999" fill="#FFFFFF"/><rect x="9.360" y="5.280" width="0.6799999999999999" height="0.6799999999999999" fill="#FFFFFF"/><rect x="10.040" y="5.280" width="0.6799999999999999" height="0.6799999999999999" fill="#3A2A22"/><rect x="4.600" y="5.960" width="0.6799999999999999" height="0.6799999999999999" fill="#3A2A22"/><rect x="5.280" y="5.960" width="0.6799999999999999" height="0.6799999999999999" fill="#FFFFFF"/><rect x="5.960" y="5.960" width="0.6799999999999999" height="0.6799999999999999" fill="#FFFFFF"/><rect x="6.640" y="5.960" width="0.6799999999999999" height="0.6799999999999999" fill="#FFFFFF"/><rect x="7.320" y="5.960" width="0.6799999999999999" height="0.6799999999999999" fill="#FFFFFF"/><rect x="8.000" y="5.960" width="0.6799999999999999" height="0.6799999999999999" fill="#FFFFFF"/><rect x="8.680" y="5.960" width="0.6799999999999999" height="0.6799999999999999" fill="#FFFFFF"/><rect x="9.360" y="5.960" width="0.6799999999999999" height="0.6799999999999999" fill="#FFFFFF"/><rect x="10.040" y="5.960" width="0.6799999999999999" height="0.6799999999999999" fill="#FFFFFF"/><rect x="10.720" y="5.960" width="0.6799999999999999" height="0.6799999999999999" fill="#3A2A22"/><rect x="4.600" y="6.640" width="0.6799999999999999" height="0.6799999999999999" fill="#3A2A22"/><rect x="5.280" y="6.640" width="0.6799999999999999" height="0.6799999999999999" fill="#FFFFFF"/><rect x="5.960" y="6.640" width="0.6799999999999999" height="0.6799999999999999" fill="#FFFFFF"/><rect x="6.640" y="6.640" width="0.6799999999999999" height="0.6799999999999999" fill="#FFFFFF"/><rect x="7.320" y="6.640" width="0.6799999999999999" height="0.6799999999999999" fill="#FFFFFF"/><rect x="8.000" y="6.640" width="0.6799999999999999" height="0.6799999999999999" fill="#FFFFFF"/><rect x="8.680" y="6.640" width="0.6799999999999999" height="0.6799999999999999" fill="#FFFFFF"/><rect x="9.360" y="6.640" width="0.6799999999999999" height="0.6799999999999999" fill="#FFFFFF"/><rect x="10.040" y="6.640" width="0.6799999999999999" height="0.6799999999999999" fill="#FFFFFF"/><rect x="10.720" y="6.640" width="0.6799999999999999" height="0.6799999999999999" fill="#3A2A22"/><rect x="3.920" y="7.320" width="0.6799999999999999" height="0.6799999999999999" fill="#3A2A22"/><rect x="4.600" y="7.320" width="0.6799999999999999" height="0.6799999999999999" fill="#FFFFFF"/><rect x="5.280" y="7.320" width="0.6799999999999999" height="0.6799999999999999" fill="#FFFFFF"/><rect x="5.960" y="7.320" width="0.6799999999999999" height="0.6799999999999999" fill="#FFFFFF"/><rect x="6.640" y="7.320" width="0.6799999999999999" height="0.6799999999999999" fill="#FFFFFF"/><rect x="7.320" y="7.320" width="0.6799999999999999" height="0.6799999999999999" fill="#FFFFFF"/><rect x="8.000" y="7.320" width="0.6799999999999999" height="0.6799999999999999" fill="#FFFFFF"/><rect x="8.680" y="7.320" width="0.6799999999999999" height="0.6799999999999999" fill="#FFFFFF"/><rect x="9.360" y="7.320" width="0.6799999999999999" height="0.6799999999999999" fill="#FFFFFF"/><rect x="10.040" y="7.320" width="0.6799999999999999" height="0.6799999999999999" fill="#FFFFFF"/><rect x="10.720" y="7.320" width="0.6799999999999999" height="0.6799999999999999" fill="#FFFFFF"/><rect x="11.400" y="7.320" width="0.6799999999999999" height="0.6799999999999999" fill="#3A2A22"/><rect x="3.920" y="8.000" width="0.6799999999999999" height="0.6799999999999999" fill="#3A2A22"/><rect x="4.600" y="8.000" width="0.6799999999999999" height="0.6799999999999999" fill="#FFFFFF"/><rect x="5.280" y="8.000" width="0.6799999999999999" height="0.6799999999999999" fill="#FFFFFF"/><rect x="5.960" y="8.000" width="0.6799999999999999" height="0.6799999999999999" fill="#FFFFFF"/><rect x="6.640" y="8.000" width="0.6799999999999999" height="0.6799999999999999" fill="#3A2A22"/><rect x="7.320" y="8.000" width="0.6799999999999999" height="0.6799999999999999" fill="#FFFFFF"/><rect x="8.000" y="8.000" width="0.6799999999999999" height="0.6799999999999999" fill="#FFFFFF"/><rect x="8.680" y="8.000" width="0.6799999999999999" height="0.6799999999999999" fill="#3A2A22"/><rect x="9.360" y="8.000" width="0.6799999999999999" height="0.6799999999999999" fill="#FFFFFF"/><rect x="10.040" y="8.000" width="0.6799999999999999" height="0.6799999999999999" fill="#FFFFFF"/><rect x="10.720" y="8.000" width="0.6799999999999999" height="0.6799999999999999" fill="#FFFFFF"/><rect x="11.400" y="8.000" width="0.6799999999999999" height="0.6799999999999999" fill="#3A2A22"/><rect x="3.920" y="8.680" width="0.6799999999999999" height="0.6799999999999999" fill="#3A2A22"/><rect x="4.600" y="8.680" width="0.6799999999999999" height="0.6799999999999999" fill="#FFFFFF"/><rect x="5.280" y="8.680" width="0.6799999999999999" height="0.6799999999999999" fill="#FFFFFF"/><rect x="5.960" y="8.680" width="0.6799999999999999" height="0.6799999999999999" fill="#FFFFFF"/><rect x="6.640" y="8.680" width="0.6799999999999999" height="0.6799999999999999" fill="#FFFFFF"/><rect x="7.320" y="8.680" width="0.6799999999999999" height="0.6799999999999999" fill="#FFFFFF"/><rect x="8.000" y="8.680" width="0.6799999999999999" height="0.6799999999999999" fill="#FFFFFF"/><rect x="8.680" y="8.680" width="0.6799999999999999" height="0.6799999999999999" fill="#FFFFFF"/><rect x="9.360" y="8.680" width="0.6799999999999999" height="0.6799999999999999" fill="#FFFFFF"/><rect x="10.040" y="8.680" width="0.6799999999999999" height="0.6799999999999999" fill="#FFFFFF"/><rect x="10.720" y="8.680" width="0.6799999999999999" height="0.6799999999999999" fill="#FFFFFF"/><rect x="11.400" y="8.680" width="0.6799999999999999" height="0.6799999999999999" fill="#3A2A22"/><rect x="3.920" y="9.360" width="0.6799999999999999" height="0.6799999999999999" fill="#3A2A22"/><rect x="4.600" y="9.360" width="0.6799999999999999" height="0.6799999999999999" fill="#FFFFFF"/><rect x="5.280" y="9.360" width="0.6799999999999999" height="0.6799999999999999" fill="#FFFFFF"/><rect x="5.960" y="9.360" width="0.6799999999999999" height="0.6799999999999999" fill="#FFFFFF"/><rect x="6.640" y="9.360" width="0.6799999999999999" height="0.6799999999999999" fill="#FFFFFF"/><rect x="7.320" y="9.360" width="0.6799999999999999" height="0.6799999999999999" fill="#FFFFFF"/><rect x="8.000" y="9.360" width="0.6799999999999999" height="0.6799999999999999" fill="#FFFFFF"/><rect x="8.680" y="9.360" width="0.6799999999999999" height="0.6799999999999999" fill="#FFFFFF"/><rect x="9.360" y="9.360" width="0.6799999999999999" height="0.6799999999999999" fill="#FFFFFF"/><rect x="10.040" y="9.360" width="0.6799999999999999" height="0.6799999999999999" fill="#FFFFFF"/><rect x="10.720" y="9.360" width="0.6799999999999999" height="0.6799999999999999" fill="#FFFFFF"/><rect x="11.400" y="9.360" width="0.6799999999999999" height="0.6799999999999999" fill="#3A2A22"/><rect x="4.600" y="10.040" width="0.6799999999999999" height="0.6799999999999999" fill="#3A2A22"/><rect x="5.280" y="10.040" width="0.6799999999999999" height="0.6799999999999999" fill="#FFFFFF"/><rect x="5.960" y="10.040" width="0.6799999999999999" height="0.6799999999999999" fill="#FFFFFF"/><rect x="6.640" y="10.040" width="0.6799999999999999" height="0.6799999999999999" fill="#3A2A22"/><rect x="7.320" y="10.040" width="0.6799999999999999" height="0.6799999999999999" fill="#FFFFFF"/><rect x="8.000" y="10.040" width="0.6799999999999999" height="0.6799999999999999" fill="#FFFFFF"/><rect x="8.680" y="10.040" width="0.6799999999999999" height="0.6799999999999999" fill="#3A2A22"/><rect x="9.360" y="10.040" width="0.6799999999999999" height="0.6799999999999999" fill="#FFFFFF"/><rect x="10.040" y="10.040" width="0.6799999999999999" height="0.6799999999999999" fill="#FFFFFF"/><rect x="10.720" y="10.040" width="0.6799999999999999" height="0.6799999999999999" fill="#3A2A22"/><rect x="4.600" y="10.720" width="0.6799999999999999" height="0.6799999999999999" fill="#3A2A22"/><rect x="5.280" y="10.720" width="0.6799999999999999" height="0.6799999999999999" fill="#FFFFFF"/><rect x="5.960" y="10.720" width="0.6799999999999999" height="0.6799999999999999" fill="#FFFFFF"/><rect x="6.640" y="10.720" width="0.6799999999999999" height="0.6799999999999999" fill="#FFFFFF"/><rect x="7.320" y="10.720" width="0.6799999999999999" height="0.6799999999999999" fill="#3A2A22"/><rect x="8.000" y="10.720" width="0.6799999999999999" height="0.6799999999999999" fill="#3A2A22"/><rect x="8.680" y="10.720" width="0.6799999999999999" height="0.6799999999999999" fill="#FFFFFF"/><rect x="9.360" y="10.720" width="0.6799999999999999" height="0.6799999999999999" fill="#FFFFFF"/><rect x="10.040" y="10.720" width="0.6799999999999999" height="0.6799999999999999" fill="#FFFFFF"/><rect x="10.720" y="10.720" width="0.6799999999999999" height="0.6799999999999999" fill="#3A2A22"/><rect x="5.280" y="11.400" width="0.6799999999999999" height="0.6799999999999999" fill="#3A2A22"/><rect x="5.960" y="11.400" width="0.6799999999999999" height="0.6799999999999999" fill="#FFFFFF"/><rect x="6.640" y="11.400" width="0.6799999999999999" height="0.6799999999999999" fill="#3A2A22"/><rect x="7.320" y="11.400" width="0.6799999999999999" height="0.6799999999999999" fill="#3A2A22"/><rect x="8.000" y="11.400" width="0.6799999999999999" height="0.6799999999999999" fill="#3A2A22"/><rect x="8.680" y="11.400" width="0.6799999999999999" height="0.6799999999999999" fill="#3A2A22"/><rect x="9.360" y="11.400" width="0.6799999999999999" height="0.6799999999999999" fill="#FFFFFF"/><rect x="10.040" y="11.400" width="0.6799999999999999" height="0.6799999999999999" fill="#3A2A22"/><rect x="5.960" y="12.080" width="0.6799999999999999" height="0.6799999999999999" fill="#3A2A22"/><rect x="9.360" y="12.080" width="0.6799999999999999" height="0.6799999999999999" fill="#3A2A22"/><rect x="5.280" y="12.760" width="0.6799999999999999" height="0.6799999999999999" fill="#3A2A22"/><rect x="5.960" y="12.760" width="0.6799999999999999" height="0.6799999999999999" fill="#3A2A22"/><rect x="9.360" y="12.760" width="0.6799999999999999" height="0.6799999999999999" fill="#3A2A22"/><rect x="10.040" y="12.760" width="0.6799999999999999" height="0.6799999999999999" fill="#3A2A22"/></svg>
