<svg xmlns="http://www.w3.org/2000/svg" viewBox="0 0 16 16" shape-rendering="crispEdges"><rect width="16" height="16" rx="3.4" fill="#FFE3EC"/><rect x="7.120" y="1.840" width="0.88" height="0.88" fill="#3A2A22"/><rect x="8.000" y="1.840" width="0.88" height="0.88" fill="#3A2A22"/><rect x="6.240" y="2.720" width="0.88" height="0.88" fill="#3A2A22"/><rect x="7.120" y="2.720" width="0.88" height="0.88" fill="#FFFFFF"/><rect x="8.000" y="2.720" width="0.88" height="0.88" fill="#FFFFFF"/><rect x="8.880" y="2.720" width="0.88" height="0.88" fill="#3A2A22"/><rect x="5.360" y="3.600" width="0.88" height="0.88" fill="#3A2A22"/><rect x="6.240" y="3.600" width="0.88" height="0.88" fill="#FFFFFF"/><rect x="7.120" y="3.600" width="0.88" height="0.88" fill="#FFFFFF"/><rect x="8.000" y="3.600" width="0.88" height="0.88" fill="#FFFFFF"/><rect x="8.880" y="3.600" width="0.88" height="0.88" fill="#FFFFFF"/><rect x="9.760" y="3.600" width="0.88" height="0.88" fill="#3A2A22"/><rect x="4.480" y="4.480" width="0.88" height="0.88" fill="#3A2A22"/><rect x="5.360" y="4.480" width="0.88" height="0.88" fill="#FFFFFF"/><rect x="6.240" y="4.480" width="0.88" height="0.88" fill="#FFFFFF"/><rect x="7.120" y="4.480" width="0.88" height="0.88" fill="#FFFFFF"/><rect x="8.000" y="4.480" width="0.88" height="0.88" fill="#FFFFFF"/><rect x="8.880" y="4.480" width="0.88" height="0.88" fill="#FFFFFF"/><rect x="9.760" y="4.480" width="0.88" height="0.88" fill="#FFFFFF"/><rect x="10.640" y="4.480" width="0.88" height="0.88" fill="#3A2A22"/><rect x="3.600" y="5.360" width="0.88" height="0.88" fill="#3A2A22"/><rect x="4.480" y="5.360" width="0.88" height="0.88" fill="#FFFFFF"/><rect x="5.360" y="5.360" width="0.88" height="0.88" fill="#FFFFFF"/><rect x="6.240" y="5.360" width="0.88" height="0.88" fill="#FFFFFF"/><rect x="7.120" y="5.360" width="0.88" height="0.88" fill="#FFFFFF"/><rect x="8.000" y="5.360" width="0.88" height="0.88" fill="#FFFFFF"/><rect x="8.880" y="5.360" width="0.88" height="0.88" fill="#FFFFFF"/><rect x="9.760" y="5.360" width="0.88" height="0.88" fill="#FFFFFF"/><rect x="10.640" y="5.360" width="0.88" height="0.88" fill="#FFFFFF"/><rect x="11.520" y="5.360" width="0.88" height="0.88" fill="#3A2A22"/><rect x="3.600" y="6.240" width="0.88" height="0.88" fill="#3A2A22"/><rect x="4.480" y="6.240" width="0.88" height="0.88" fill="#FFFFFF"/><rect x="5.360" y="6.240" width="0.88" height="0.88" fill="#FFFFFF"/><rect x="6.240" y="6.240" width="0.88" height="0.88" fill="#FFFFFF"/><rect x="7.120" y="6.240" width="0.88" height="0.88" fill="#FFFFFF"/><rect x="8.000" y="6.240" width="0.88" height="0.88" fill="#FFFFFF"/><rect x="8.880" y="6.240" width="0.88" height="0.88" fill="#FFFFFF"/><rect x="9.760" y="6.240" width="0.88" height="0.88" fill="#FFFFFF"/><rect x="10.640" y="6.240" width="0.88" height="0.88" fill="#FFFFFF"/><rect x="11.520" y="6.240" width="0.88" height="0.88" fill="#3A2A22"/><rect x="2.720" y="7.120" width="0.88" height="0.88" fill="#3A2A22"/><rect x="3.600" y="7.120" width="0.88" height="0.88" fill="#FFFFFF"/><rect x="4.480" y="7.120" width="0.88" height="0.88" fill="#FFFFFF"/><rect x="5.360" y="7.120" width="0.88" height="0.88" fill="#FFFFFF"/><rect x="6.240" y="7.120" width="0.88" height="0.88" fill="#FFFFFF"/><rect x="7.120" y="7.120" width="0.88" height="0.88" fill="#FFFFFF"/><rect x="8.000" y="7.120" width="0.88" height="0.88" fill="#FFFFFF"/><rect x="8.880" y="7.120" width="0.88" height="0.88" fill="#FFFFFF"/><rect x="9.760" y="7.120" width="0.88" height="0.88" fill="#FFFFFF"/><rect x="10.640" y="7.120" width="0.88" height="0.88" fill="#FFFFFF"/><rect x="11.520" y="7.120" width="0.88" height="0.88" fill="#FFFFFF"/><rect x="12.400" y="7.120" width="0.88" height="0.88" fill="#3A2A22"/><rect x="2.720" y="8.000" width="0.88" height="0.88" fill="#3A2A22"/><rect x="3.600" y="8.000" width="0.88" height="0.88" fill="#FFFFFF"/><rect x="4.480" y="8.000" width="0.88" height="0.88" fill="#FFFFFF"/><rect x="5.360" y="8.000" width="0.88" height="0.88" fill="#FFFFFF"/><rect x="6.240" y="8.000" width="0.88" height="0.88" fill="#3A2A22"/><rect x="7.120" y="8.000" width="0.88" height="0.88" fill="#FFFFFF"/><rect x="8.000" y="8.000" width="0.88" height="0.88" fill="#FFFFFF"/><rect x="8.880" y="8.000" width="0.88" height="0.88" fill="#3A2A22"/><rect x="9.760" y="8.000" width="0.88" height="0.88" fill="#FFFFFF"/><rect x="10.640" y="8.000" width="0.88" height="0.88" fill="#FFFFFF"/><rect x="11.520" y="8.000" width="0.88" height="0.88" fill="#FFFFFF"/><rect x="12.400" y="8.000" width="0.88" height="0.88" fill="#3A2A22"/><rect x="2.720" y="8.880" width="0.88" height="0.88" fill="#3A2A22"/><rect x="3.600" y="8.880" width="0.88" height="0.88" fill="#FFFFFF"/><rect x="4.480" y="8.880" width="0.88" height="0.88" fill="#FFFFFF"/><rect x="5.360" y="8.880" width="0.88" height="0.88" fill="#FFFFFF"/><rect x="6.240" y="8.880" width="0.88" height="0.88" fill="#FFFFFF"/><rect x="7.120" y="8.880" width="0.88" height="0.88" fill="#FFFFFF"/><rect x="8.000" y="8.880" width="0.88" height="0.88" fill="#FFFFFF"/><rect x="8.880" y="8.880" width="0.88" height="0.88" fill="#FFFFFF"/><rect x="9.760" y="8.880" width="0.88" height="0.88" fill="#FFFFFF"/><rect x="10.640" y="8.880" width="0.88" height="0.88" fill="#FFFFFF"/><rect x="11.520" y="8.880" width="0.88" height="0.88" fill="#FFFFFF"/><rect x="12.400" y="8.880" width="0.88" height="0.88" fill="#3A2A22"/><rect x="2.720" y="9.760" width="0.88" height="0.88" fill="#3A2A22"/><rect x="3.600" y="9.760" width="0.88" height="0.88" fill="#FFFFFF"/><rect x="4.480" y="9.760" width="0.88" height="0.88" fill="#FFFFFF"/><rect x="5.360" y="9.760" width="0.88" height="0.88" fill="#FFFFFF"/><rect x="6.240" y="9.760" width="0.88" height="0.88" fill="#FFFFFF"/><rect x="7.120" y="9.760" width="0.88" height="0.88" fill="#FFFFFF"/><rect x="8.000" y="9.760" width="0.88" height="0.88" fill="#FFFFFF"/><rect x="8.880" y="9.760" width="0.88" height="0.88" fill="#FFFFFF"/><rect x="9.760" y="9.760" width="0.88" height="0.88" fill="#FFFFFF"/><rect x="10.640" y="9.760" width="0.88" height="0.88" fill="#FFFFFF"/><rect x="11.520" y="9.760" width="0.88" height="0.88" fill="#FFFFFF"/><rect x="12.400" y="9.760" width="0.88" height="0.88" fill="#3A2A22"/><rect x="3.600" y="10.640" width="0.88" height="0.88" fill="#3A2A22"/><rect x="4.480" y="10.640" width="0.88" height="0.88" fill="#FFFFFF"/><rect x="5.360" y="10.640" width="0.88" height="0.88" fill="#FFFFFF"/><rect x="6.240" y="10.640" width="0.88" height="0.88" fill="#3A2A22"/><rect x="7.120" y="10.640" width="0.88" height="0.88" fill="#FFFFFF"/><rect x="8.000" y="10.640" width="0.88" height="0.88" fill="#FFFFFF"/><rect x="8.880" y="10.640" width="0.88" height="0.88" fill="#3A2A22"/><rect x="9.760" y="10.640" width="0.88" height="0.88" fill="#FFFFFF"/><rect x="10.640" y="10.640" width="0.88" height="0.88" fill="#FFFFFF"/><rect x="11.520" y="10.640" width="0.88" height="0.88" fill="#3A2A22"/><rect x="3.600" y="11.520" width="0.88" height="0.88" fill="#3A2A22"/><rect x="4.480" y="11.520" width="0.88" height="0.88" fill="#FFFFFF"/><rect x="5.360" y="11.520" width="0.88" height="0.88" fill="#FFFFFF"/><rect x="6.240" y="11.520" width="0.88" height="0.88" fill="#FFFFFF"/><rect x="7.120" y="11.520" width="0.88" height="0.88" fill="#3A2A22"/><rect x="8.000" y="11.520" width="0.88" height="0.88" fill="#3A2A22"/><rect x="8.880" y="11.520" width="0.88" height="0.88" fill="#FFFFFF"/><rect x="9.760" y="11.520" width="0.88" height="0.88" fill="#FFFFFF"/><rect x="10.640" y="11.520" width="0.88" height="0.88" fill="#FFFFFF"/><rect x="11.520" y="11.520" width="0.88" height="0.88" fill="#3A2A22"/><rect x="4.480" y="12.400" width="0.88" height="0.88" fill="#3A2A22"/><rect x="5.360" y="12.400" width="0.88" height="0.88" fill="#FFFFFF"/><rect x="6.240" y="12.400" width="0.88" height="0.88" fill="#3A2A22"/><rect x="7.120" y="12.400" width="0.88" height="0.88" fill="#3A2A22"/><rect x="8.000" y="12.400" width="0.88" height="0.88" fill="#3A2A22"/><rect x="8.880" y="12.400" width="0.88" height="0.88" fill="#3A2A22"/><rect x="9.760" y="12.400" width="0.88" height="0.88" fill="#FFFFFF"/><rect x="10.640" y="12.400" width="0.88" height="0.88" fill="#3A2A22"/><rect x="5.360" y="13.280" width="0.88" height="0.88" fill="#3A2A22"/><rect x="9.760" y="13.280" width="0.88" height="0.88" fill="#3A2A22"/><rect x="4.480" y="14.160" width="0.88" height="0.88" fill="#3A2A22"/><rect x="5.360" y="14.160" width="0.88" height="0.88" fill="#3A2A22"/><rect x="9.760" y="14.160" width="0.88" height="0.88" fill="#3A2A22"/><rect x="10.640" y="14.160" width="0.88" height="0.88" fill="#3A2A22"/></svg>
